<svg width="100" height="93" fill="none" xmlns="http://www.w3.org/2000/svg"><g clip-path="url(#clip0)" clip-rule="evenodd"><path fill-rule="evenodd" d="M41.42 31.87c-14.99 1.985-27.628 9.948-36.504 21.564l-1.59-1.214c9.171-12.001 22.27-20.272 37.83-22.332 15.563-2.06 33.488 2.106 52.305 14.79l-1.118 1.66C73.85 33.87 56.408 29.887 41.419 31.87z" fill="#0B3B3C"/><path fill-rule="evenodd" d="M41.091 29.392c15.706-2.078 33.751 2.133 52.65 14.872l.414.28-1.677 2.487-.415-.28c-18.411-12.41-35.732-16.349-50.578-14.384-14.847 1.964-27.369 9.85-36.172 21.37l-.303.398-2.384-1.822.303-.397c9.244-12.097 22.458-20.445 38.162-22.523zm51.675 15.423C74.182 32.403 56.527 28.359 41.222 30.384 25.976 32.4 13.11 40.437 4.03 52.127l.795.607c8.934-11.497 21.568-19.379 36.53-21.359 15.02-1.987 32.433 1.967 50.853 14.269l.559-.83z" fill="#000"/><path fill-rule="evenodd" d="M41.091 29.392c15.706-2.078 33.751 2.133 52.65 14.872l.414.28-1.677 2.487-.415-.28c-18.411-12.41-35.732-16.349-50.578-14.384-14.847 1.964-27.369 9.85-36.172 21.37l-.303.398-2.384-1.822.303-.397c9.244-12.097 22.458-20.445 38.162-22.523zm51.675 15.423C74.182 32.403 56.527 28.359 41.222 30.384 25.976 32.4 13.11 40.437 4.03 52.127l.795.607c8.934-11.497 21.568-19.379 36.53-21.359 15.02-1.987 32.433 1.967 50.853 14.269l.559-.83z" fill="#000" fill-opacity=".2"/><path fill-rule="evenodd" d="M88.505 33.763a1 1 0 011.323.502l4.854 10.792.001.003a1.687 1.687 0 01-1.607 2.378l-11.916-.397a1 1 0 01.067-1.999l11.427.381-4.65-10.338a1 1 0 01.501-1.322z" fill="#0B3B3C"/><path d="M88.505 33.763a1 1 0 011.323.502l4.854 10.792.001.003a1.687 1.687 0 01-1.607 2.378l-11.916-.397a1 1 0 01.067-1.999l11.427.381-4.65-10.338a1 1 0 01.501-1.322z" stroke="#000" stroke-linecap="round" stroke-linejoin="round"/><path d="M88.505 33.763a1 1 0 011.323.502l4.854 10.792.001.003a1.687 1.687 0 01-1.607 2.378l-11.916-.397a1 1 0 01.067-1.999l11.427.381-4.65-10.338a1 1 0 01.501-1.322z" stroke="#000" stroke-opacity=".2" stroke-linecap="round" stroke-linejoin="round"/></g><defs><clipPath id="clip0"><path fill="#fff" transform="rotate(-2.485 99.596 -14.206)" d="M0 0h95.493v87.853H0z"/></clipPath></defs></svg>