<svg width="118" height="26" fill="none" xmlns="http://www.w3.org/2000/svg"><path d="M.048.822h16.2v3h-6.37v16.865H6.377V3.822H.034v-3h.014zm15.508 5.482h2.995v2.775h.056c.1-.392.283-.77.551-1.135a5.08 5.08 0 01.975-1.01 5.204 5.204 0 011.271-.743c.466-.182.946-.28 1.427-.28.367 0 .635.014.776.028.142.014.283.042.438.056v3.056a10.29 10.29 0 00-.692-.098 5.91 5.91 0 00-.692-.042c-.537 0-1.045.112-1.525.322-.48.21-.89.533-1.243.94-.353.42-.636.925-.848 1.542-.212.617-.31 1.318-.31 2.117v6.84h-3.193V6.305h.014zM38.72 20.687h-3.135v-2.005h-.057c-.395.729-.974 1.304-1.751 1.738-.777.435-1.568.66-2.373.66-1.907 0-3.291-.463-4.138-1.403-.848-.939-1.272-2.355-1.272-4.247V6.304h3.192v8.817c0 1.262.24 2.16.735 2.678.48.519 1.172.785 2.048.785.678 0 1.229-.098 1.68-.308.453-.21.82-.477 1.088-.828.283-.336.48-.757.608-1.233.127-.477.183-.995.183-1.556V6.318h3.192v14.369zm5.438-4.612c.1.925.452 1.57 1.06 1.948.621.365 1.355.56 2.217.56.297 0 .636-.027 1.017-.07.381-.041.749-.14 1.074-.266a2.07 2.07 0 00.833-.574c.212-.253.31-.575.296-.982a1.35 1.35 0 00-.452-.995c-.282-.266-.635-.463-1.073-.63a10.833 10.833 0 00-1.497-.407c-.565-.112-1.13-.239-1.71-.365a16.303 16.303 0 01-1.722-.476 5.278 5.278 0 01-1.483-.757 3.336 3.336 0 01-1.046-1.206c-.268-.49-.395-1.094-.395-1.822 0-.785.198-1.43.579-1.963a4.38 4.38 0 011.455-1.276 6.775 6.775 0 011.963-.687 12.04 12.04 0 012.062-.196c.749 0 1.47.084 2.147.238.678.155 1.3.407 1.85.771.551.35 1.003.813 1.37 1.374.368.561.594 1.248.692 2.047h-3.333c-.155-.757-.494-1.276-1.045-1.528-.55-.266-1.187-.393-1.893-.393-.226 0-.494.014-.805.056a4.61 4.61 0 00-.876.21 1.901 1.901 0 00-.692.45c-.183.196-.282.448-.282.77 0 .393.141.701.41.94.268.238.621.434 1.059.602.438.155.932.295 1.497.407.565.112 1.144.238 1.737.364.58.127 1.144.295 1.71.477a5.191 5.191 0 011.497.757c.437.322.79.715 1.059 1.192.268.476.41 1.08.41 1.78 0 .855-.198 1.57-.594 2.173a4.68 4.68 0 01-1.525 1.444 7.205 7.205 0 01-2.09.813c-.763.168-1.526.252-2.275.252-.918 0-1.765-.098-2.542-.308-.777-.21-1.455-.519-2.02-.925a4.598 4.598 0 01-1.341-1.556c-.325-.617-.495-1.36-.523-2.215h3.22v-.028zm10.537-9.771h2.415V1.986h3.192v4.318h2.882v2.369h-2.882v7.682c0 .336.014.617.043.87.028.237.099.448.197.616a.905.905 0 00.466.378c.212.085.48.127.848.127.226 0 .452 0 .678-.014.226-.014.452-.042.678-.099v2.454c-.353.042-.706.07-1.031.112a8.31 8.31 0 01-1.031.056c-.848 0-1.526-.084-2.034-.238-.509-.155-.918-.393-1.2-.701-.297-.309-.48-.687-.594-1.15a8.576 8.576 0 01-.184-1.584V8.701h-2.415V6.304h-.028zm10.748 0h3.023v1.948h.057c.452-.841 1.073-1.43 1.878-1.794a6.23 6.23 0 012.613-.547c1.144 0 2.133.196 2.98.603a5.82 5.82 0 012.119 1.64c.565.701.975 1.514 1.257 2.44.283.925.424 1.92.424 2.971 0 .968-.127 1.907-.382 2.804a7.48 7.48 0 01-1.144 2.411 5.604 5.604 0 01-1.949 1.668c-.79.421-1.709.631-2.782.631a7.86 7.86 0 01-1.399-.126 6.191 6.191 0 01-1.341-.406 4.854 4.854 0 01-1.187-.715 4.455 4.455 0 01-.918-1.01h-.056V26h-3.192V6.304zm11.159 7.205a7.11 7.11 0 00-.255-1.892 5.086 5.086 0 00-.762-1.627 3.876 3.876 0 00-1.257-1.135 3.545 3.545 0 00-1.738-.435c-1.341 0-2.358.463-3.036 1.388-.678.925-1.017 2.16-1.017 3.701 0 .73.084 1.402.268 2.019.184.617.438 1.15.805 1.598.353.449.777.8 1.271 1.051.495.267 1.074.393 1.724.393.734 0 1.341-.154 1.85-.449a3.897 3.897 0 001.243-1.15 4.76 4.76 0 00.706-1.611c.127-.603.198-1.22.198-1.85zM82.237.822h3.192v3h-3.192v-3zm0 5.482h3.192v14.383h-3.192V6.304zM88.283.822h3.192v19.865h-3.192V.822zm12.98 20.257c-1.158 0-2.19-.196-3.094-.575a6.831 6.831 0 01-2.302-1.57 6.826 6.826 0 01-1.426-2.397c-.325-.925-.495-1.948-.495-3.056 0-1.093.17-2.103.495-3.028a6.826 6.826 0 011.426-2.397c.622-.673 1.399-1.192 2.302-1.57.904-.379 1.936-.575 3.094-.575s2.189.196 3.093.575a6.824 6.824 0 012.302 1.57 6.821 6.821 0 011.427 2.397 9.08 9.08 0 01.494 3.028c0 1.108-.169 2.131-.494 3.056a6.82 6.82 0 01-1.427 2.397c-.621.673-1.398 1.192-2.302 1.57-.904.379-1.935.575-3.093.575zm0-2.51c.706 0 1.327-.153 1.85-.448a3.922 3.922 0 001.285-1.163c.339-.477.579-1.024.749-1.626a7.41 7.41 0 00.24-1.85c0-.618-.085-1.22-.24-1.837a4.774 4.774 0 00-.749-1.627 3.882 3.882 0 00-1.285-1.149c-.523-.294-1.144-.449-1.85-.449-.706 0-1.328.155-1.85.449a4.045 4.045 0 00-1.286 1.15 5.061 5.061 0 00-.748 1.626 7.448 7.448 0 00-.24 1.836c0 .631.084 1.248.24 1.85.155.603.41 1.15.748 1.627.34.476.763.869 1.285 1.163.523.309 1.145.449 1.851.449zm8.248-12.265h2.416V1.986h3.192v4.318H118v2.369h-2.881v7.682c0 .336.014.617.042.87.028.237.099.448.198.616a.905.905 0 00.466.378c.212.085.48.127.847.127.226 0 .452 0 .678-.014.226-.014.452-.042.678-.099v2.454c-.353.042-.706.07-1.031.112a8.31 8.31 0 01-1.031.056c-.847 0-1.525-.084-2.034-.238-.508-.155-.918-.393-1.2-.701-.297-.309-.481-.687-.594-1.15a8.648 8.648 0 01-.183-1.584V8.701h-2.415V6.304h-.029z" fill="#191919"/></svg>